<svg id="visual" viewBox="0 0 900 75" width="900" height="75" xmlns="http://www.w3.org/2000/svg" xmlns:xlink="http://www.w3.org/1999/xlink" version="1.1"><path d="M0 18L10.7 16.8C21.3 15.7 42.7 13.3 64.2 14.7C85.7 16 107.3 21 128.8 22.7C150.3 24.3 171.7 22.7 193 20.7C214.3 18.7 235.7 16.3 257 18.3C278.3 20.3 299.7 26.7 321.2 27.5C342.7 28.3 364.3 23.7 385.8 24.5C407.3 25.3 428.7 31.7 450 33C471.3 34.3 492.7 30.7 514.2 26.8C535.7 23 557.3 19 578.8 20.3C600.3 21.7 621.7 28.3 643 30.7C664.3 33 685.7 31 707 30.8C728.3 30.7 749.7 32.3 771.2 29.8C792.7 27.3 814.3 20.7 835.8 19.8C857.3 19 878.7 24 889.3 26.5L900 29L900 76L889.3 76C878.7 76 857.3 76 835.8 76C814.3 76 792.7 76 771.2 76C749.7 76 728.3 76 707 76C685.7 76 664.3 76 643 76C621.7 76 600.3 76 578.8 76C557.3 76 535.7 76 514.2 76C492.7 76 471.3 76 450 76C428.7 76 407.3 76 385.8 76C364.3 76 342.7 76 321.2 76C299.7 76 278.3 76 257 76C235.7 76 214.3 76 193 76C171.7 76 150.3 76 128.8 76C107.3 76 85.7 76 64.2 76C42.7 76 21.3 76 10.7 76L0 76Z" fill="#0ed3dd"></path><path d="M0 24L10.7 25.7C21.3 27.3 42.7 30.7 64.2 33.3C85.7 36 107.3 38 128.8 39C150.3 40 171.7 40 193 38.7C214.3 37.3 235.7 34.7 257 35.5C278.3 36.3 299.7 40.7 321.2 40.2C342.7 39.7 364.3 34.3 385.8 31C407.3 27.7 428.7 26.3 450 28C471.3 29.7 492.7 34.3 514.2 34.3C535.7 34.3 557.3 29.7 578.8 31.3C600.3 33 621.7 41 643 42.2C664.3 43.3 685.7 37.7 707 34C728.3 30.3 749.7 28.7 771.2 28.8C792.7 29 814.3 31 835.8 33C857.3 35 878.7 37 889.3 38L900 39L900 76L889.3 76C878.7 76 857.3 76 835.8 76C814.3 76 792.7 76 771.2 76C749.7 76 728.3 76 707 76C685.7 76 664.3 76 643 76C621.7 76 600.3 76 578.8 76C557.3 76 535.7 76 514.2 76C492.7 76 471.3 76 450 76C428.7 76 407.3 76 385.8 76C364.3 76 342.7 76 321.2 76C299.7 76 278.3 76 257 76C235.7 76 214.3 76 193 76C171.7 76 150.3 76 128.8 76C107.3 76 85.7 76 64.2 76C42.7 76 21.3 76 10.7 76L0 76Z" fill="#00b6fb"></path><path d="M0 50L10.7 49C21.3 48 42.7 46 64.2 44.8C85.7 43.7 107.3 43.3 128.8 43.7C150.3 44 171.7 45 193 46.2C214.3 47.3 235.7 48.7 257 47.5C278.3 46.3 299.7 42.7 321.2 42.5C342.7 42.3 364.3 45.7 385.8 48.8C407.3 52 428.7 55 450 55C471.3 55 492.7 52 514.2 51.2C535.7 50.3 557.3 51.7 578.8 50.7C600.3 49.7 621.7 46.3 643 45.8C664.3 45.3 685.7 47.7 707 47.2C728.3 46.7 749.7 43.3 771.2 43.3C792.7 43.3 814.3 46.7 835.8 46.3C857.3 46 878.7 42 889.3 40L900 38L900 76L889.3 76C878.7 76 857.3 76 835.8 76C814.3 76 792.7 76 771.2 76C749.7 76 728.3 76 707 76C685.7 76 664.3 76 643 76C621.7 76 600.3 76 578.8 76C557.3 76 535.7 76 514.2 76C492.7 76 471.3 76 450 76C428.7 76 407.3 76 385.8 76C364.3 76 342.7 76 321.2 76C299.7 76 278.3 76 257 76C235.7 76 214.3 76 193 76C171.7 76 150.3 76 128.8 76C107.3 76 85.7 76 64.2 76C42.7 76 21.3 76 10.7 76L0 76Z" fill="#338bff"></path><path d="M0 67L10.7 64.3C21.3 61.7 42.7 56.3 64.2 54.2C85.7 52 107.3 53 128.8 55.3C150.3 57.7 171.7 61.3 193 63.7C214.3 66 235.7 67 257 65.5C278.3 64 299.7 60 321.2 57.5C342.7 55 364.3 54 385.8 54.8C407.3 55.7 428.7 58.3 450 60.3C471.3 62.3 492.7 63.7 514.2 63.3C535.7 63 557.3 61 578.8 59C600.3 57 621.7 55 643 56.3C664.3 57.7 685.7 62.3 707 64.7C728.3 67 749.7 67 771.2 66.3C792.7 65.7 814.3 64.3 835.8 61.5C857.3 58.7 878.7 54.3 889.3 52.2L900 50L900 76L889.3 76C878.7 76 857.3 76 835.8 76C814.3 76 792.7 76 771.2 76C749.7 76 728.3 76 707 76C685.7 76 664.3 76 643 76C621.7 76 600.3 76 578.8 76C557.3 76 535.7 76 514.2 76C492.7 76 471.3 76 450 76C428.7 76 407.3 76 385.8 76C364.3 76 342.7 76 321.2 76C299.7 76 278.3 76 257 76C235.7 76 214.3 76 193 76C171.7 76 150.3 76 128.8 76C107.3 76 85.7 76 64.2 76C42.7 76 21.3 76 10.7 76L0 76Z" fill="#9d3be1"></path></svg>