<svg id="visual" viewBox="0 0 900 75" width="900" height="75" xmlns="http://www.w3.org/2000/svg" xmlns:xlink="http://www.w3.org/1999/xlink" version="1.1"><path d="M0 41L10.7 42.2C21.3 43.3 42.7 45.7 64.2 49.3C85.7 53 107.3 58 128.8 57.8C150.3 57.7 171.7 52.3 193 51.5C214.3 50.7 235.7 54.3 257 52.5C278.3 50.7 299.7 43.3 321.2 41.7C342.7 40 364.3 44 385.8 45.7C407.3 47.3 428.7 46.7 450 48.3C471.3 50 492.7 54 514.2 53.5C535.7 53 557.3 48 578.8 44.2C600.3 40.3 621.7 37.7 643 35.8C664.3 34 685.7 33 707 34.5C728.3 36 749.7 40 771.2 44.2C792.7 48.3 814.3 52.7 835.8 51C857.3 49.3 878.7 41.7 889.3 37.8L900 34L900 0L889.3 0C878.7 0 857.3 0 835.8 0C814.3 0 792.7 0 771.2 0C749.7 0 728.3 0 707 0C685.7 0 664.3 0 643 0C621.7 0 600.3 0 578.8 0C557.3 0 535.7 0 514.2 0C492.7 0 471.3 0 450 0C428.7 0 407.3 0 385.8 0C364.3 0 342.7 0 321.2 0C299.7 0 278.3 0 257 0C235.7 0 214.3 0 193 0C171.7 0 150.3 0 128.8 0C107.3 0 85.7 0 64.2 0C42.7 0 21.3 0 10.7 0L0 0Z" fill="#0ed3dd"></path><path d="M0 39L10.7 40.2C21.3 41.3 42.7 43.7 64.2 42.3C85.7 41 107.3 36 128.8 34.8C150.3 33.7 171.7 36.3 193 38.2C214.3 40 235.7 41 257 40C278.3 39 299.7 36 321.2 35.8C342.7 35.7 364.3 38.3 385.8 38.2C407.3 38 428.7 35 450 32.3C471.3 29.7 492.7 27.3 514.2 29C535.7 30.7 557.3 36.3 578.8 37.5C600.3 38.7 621.7 35.3 643 33.5C664.3 31.7 685.7 31.3 707 30.7C728.3 30 749.7 29 771.2 29C792.7 29 814.3 30 835.8 29.8C857.3 29.7 878.7 28.3 889.3 27.7L900 27L900 0L889.3 0C878.7 0 857.3 0 835.8 0C814.3 0 792.7 0 771.2 0C749.7 0 728.3 0 707 0C685.7 0 664.3 0 643 0C621.7 0 600.3 0 578.8 0C557.3 0 535.7 0 514.2 0C492.7 0 471.3 0 450 0C428.7 0 407.3 0 385.8 0C364.3 0 342.7 0 321.2 0C299.7 0 278.3 0 257 0C235.7 0 214.3 0 193 0C171.7 0 150.3 0 128.8 0C107.3 0 85.7 0 64.2 0C42.7 0 21.3 0 10.7 0L0 0Z" fill="#00b6fb"></path><path d="M0 27L10.7 27C21.3 27 42.7 27 64.2 27.8C85.7 28.7 107.3 30.3 128.8 30.3C150.3 30.3 171.7 28.7 193 26.3C214.3 24 235.7 21 257 22C278.3 23 299.7 28 321.2 30.2C342.7 32.3 364.3 31.7 385.8 29.5C407.3 27.3 428.7 23.7 450 21.2C471.3 18.7 492.7 17.3 514.2 17.3C535.7 17.3 557.3 18.7 578.8 18.8C600.3 19 621.7 18 643 19.3C664.3 20.7 685.7 24.3 707 23.8C728.3 23.3 749.7 18.7 771.2 20C792.7 21.3 814.3 28.7 835.8 29C857.3 29.3 878.7 22.7 889.3 19.3L900 16L900 0L889.3 0C878.7 0 857.3 0 835.8 0C814.3 0 792.7 0 771.2 0C749.7 0 728.3 0 707 0C685.7 0 664.3 0 643 0C621.7 0 600.3 0 578.8 0C557.3 0 535.7 0 514.2 0C492.7 0 471.3 0 450 0C428.7 0 407.3 0 385.8 0C364.3 0 342.7 0 321.2 0C299.7 0 278.3 0 257 0C235.7 0 214.3 0 193 0C171.7 0 150.3 0 128.8 0C107.3 0 85.7 0 64.2 0C42.7 0 21.3 0 10.7 0L0 0Z" fill="#338bff"></path><path d="M0 22L10.7 20.5C21.3 19 42.7 16 64.2 15.7C85.7 15.3 107.3 17.7 128.8 18.5C150.3 19.3 171.7 18.7 193 18.5C214.3 18.3 235.7 18.7 257 17.5C278.3 16.3 299.7 13.7 321.2 14C342.7 14.3 364.3 17.7 385.8 19.2C407.3 20.7 428.7 20.3 450 19.5C471.3 18.7 492.7 17.3 514.2 17.7C535.7 18 557.3 20 578.8 20.3C600.3 20.7 621.7 19.3 643 19C664.3 18.7 685.7 19.3 707 19C728.3 18.7 749.7 17.3 771.2 15C792.7 12.7 814.3 9.3 835.8 9.5C857.3 9.7 878.7 13.3 889.3 15.2L900 17L900 0L889.3 0C878.7 0 857.3 0 835.8 0C814.3 0 792.7 0 771.2 0C749.7 0 728.3 0 707 0C685.7 0 664.3 0 643 0C621.7 0 600.3 0 578.8 0C557.3 0 535.7 0 514.2 0C492.7 0 471.3 0 450 0C428.7 0 407.3 0 385.8 0C364.3 0 342.7 0 321.2 0C299.7 0 278.3 0 257 0C235.7 0 214.3 0 193 0C171.7 0 150.3 0 128.8 0C107.3 0 85.7 0 64.2 0C42.7 0 21.3 0 10.7 0L0 0Z" fill="#9d3be1"></path></svg>