<svg id="visual" viewBox="0 0 900 75" width="900" height="75" xmlns="http://www.w3.org/2000/svg" xmlns:xlink="http://www.w3.org/1999/xlink" version="1.1"><path d="M0 53L10.7 50.5C21.3 48 42.7 43 64.2 45.3C85.7 47.7 107.3 57.3 128.8 57.7C150.3 58 171.7 49 193 45.2C214.3 41.3 235.7 42.7 257 44.8C278.3 47 299.7 50 321.2 51.5C342.7 53 364.3 53 385.8 51.3C407.3 49.7 428.7 46.3 450 42C471.3 37.7 492.7 32.3 514.2 35.7C535.7 39 557.3 51 578.8 52.2C600.3 53.3 621.7 43.7 643 44.3C664.3 45 685.7 56 707 60.8C728.3 65.7 749.7 64.3 771.2 60.3C792.7 56.3 814.3 49.7 835.8 47.2C857.3 44.7 878.7 46.3 889.3 47.2L900 48L900 0L889.3 0C878.7 0 857.3 0 835.8 0C814.3 0 792.7 0 771.2 0C749.7 0 728.3 0 707 0C685.7 0 664.3 0 643 0C621.7 0 600.3 0 578.8 0C557.3 0 535.7 0 514.2 0C492.7 0 471.3 0 450 0C428.7 0 407.3 0 385.8 0C364.3 0 342.7 0 321.2 0C299.7 0 278.3 0 257 0C235.7 0 214.3 0 193 0C171.7 0 150.3 0 128.8 0C107.3 0 85.7 0 64.2 0C42.7 0 21.3 0 10.7 0L0 0Z" fill="#0ed3dd"></path><path d="M0 24L10.7 23.5C21.3 23 42.7 22 64.2 26.5C85.7 31 107.3 41 128.8 41.7C150.3 42.3 171.7 33.7 193 32.3C214.3 31 235.7 37 257 39.3C278.3 41.7 299.7 40.3 321.2 38.8C342.7 37.3 364.3 35.7 385.8 37.8C407.3 40 428.7 46 450 47.7C471.3 49.3 492.7 46.7 514.2 43.3C535.7 40 557.3 36 578.8 37.3C600.3 38.7 621.7 45.3 643 47.5C664.3 49.7 685.7 47.3 707 46.2C728.3 45 749.7 45 771.2 42.5C792.7 40 814.3 35 835.8 34.2C857.3 33.3 878.7 36.7 889.3 38.3L900 40L900 0L889.3 0C878.7 0 857.3 0 835.8 0C814.3 0 792.7 0 771.2 0C749.7 0 728.3 0 707 0C685.7 0 664.3 0 643 0C621.7 0 600.3 0 578.8 0C557.3 0 535.7 0 514.2 0C492.7 0 471.3 0 450 0C428.7 0 407.3 0 385.8 0C364.3 0 342.7 0 321.2 0C299.7 0 278.3 0 257 0C235.7 0 214.3 0 193 0C171.7 0 150.3 0 128.8 0C107.3 0 85.7 0 64.2 0C42.7 0 21.3 0 10.7 0L0 0Z" fill="#00b6fb"></path><path d="M0 38L10.7 34.8C21.3 31.7 42.7 25.3 64.2 24.2C85.7 23 107.3 27 128.8 28.5C150.3 30 171.7 29 193 26.8C214.3 24.7 235.7 21.3 257 22.5C278.3 23.7 299.7 29.3 321.2 30.5C342.7 31.7 364.3 28.3 385.8 26.8C407.3 25.3 428.7 25.7 450 27.3C471.3 29 492.7 32 514.2 34C535.7 36 557.3 37 578.8 36.3C600.3 35.7 621.7 33.3 643 30C664.3 26.7 685.7 22.3 707 19.5C728.3 16.7 749.7 15.3 771.2 18.5C792.7 21.7 814.3 29.3 835.8 32.8C857.3 36.3 878.7 35.7 889.3 35.3L900 35L900 0L889.3 0C878.7 0 857.3 0 835.8 0C814.3 0 792.7 0 771.2 0C749.7 0 728.3 0 707 0C685.7 0 664.3 0 643 0C621.7 0 600.3 0 578.8 0C557.3 0 535.7 0 514.2 0C492.7 0 471.3 0 450 0C428.7 0 407.3 0 385.8 0C364.3 0 342.7 0 321.2 0C299.7 0 278.3 0 257 0C235.7 0 214.3 0 193 0C171.7 0 150.3 0 128.8 0C107.3 0 85.7 0 64.2 0C42.7 0 21.3 0 10.7 0L0 0Z" fill="#338bff"></path><path d="M0 6L10.7 5.8C21.3 5.7 42.7 5.3 64.2 5.2C85.7 5 107.3 5 128.8 6.5C150.3 8 171.7 11 193 12.2C214.3 13.3 235.7 12.7 257 10.8C278.3 9 299.7 6 321.2 4.7C342.7 3.3 364.3 3.7 385.8 5C407.3 6.3 428.7 8.7 450 8.3C471.3 8 492.7 5 514.2 6C535.7 7 557.3 12 578.8 14.2C600.3 16.3 621.7 15.7 643 15C664.3 14.3 685.7 13.7 707 13.5C728.3 13.3 749.7 13.7 771.2 14.2C792.7 14.7 814.3 15.3 835.8 16.8C857.3 18.3 878.7 20.7 889.3 21.8L900 23L900 0L889.3 0C878.7 0 857.3 0 835.8 0C814.3 0 792.7 0 771.2 0C749.7 0 728.3 0 707 0C685.7 0 664.3 0 643 0C621.7 0 600.3 0 578.8 0C557.3 0 535.7 0 514.2 0C492.7 0 471.3 0 450 0C428.7 0 407.3 0 385.8 0C364.3 0 342.7 0 321.2 0C299.7 0 278.3 0 257 0C235.7 0 214.3 0 193 0C171.7 0 150.3 0 128.8 0C107.3 0 85.7 0 64.2 0C42.7 0 21.3 0 10.7 0L0 0Z" fill="#9d3be1"></path></svg>