<svg id="visual" viewBox="0 0 900 75" width="900" height="75" xmlns="http://www.w3.org/2000/svg" xmlns:xlink="http://www.w3.org/1999/xlink" version="1.1"><path d="M0 45L10 42.5C20 40 40 35 60 33.2C80 31.3 100 32.7 120 29C140 25.3 160 16.7 180 16.7C200 16.7 220 25.3 240 30.2C260 35 280 36 300 33.3C320 30.7 340 24.3 360 19.2C380 14 400 10 420 15.3C440 20.7 460 35.3 480 36.8C500 38.3 520 26.7 540 23C560 19.3 580 23.7 600 24C620 24.3 640 20.7 660 18.3C680 16 700 15 720 18.7C740 22.3 760 30.7 780 34C800 37.3 820 35.7 840 34.8C860 34 880 34 890 34L900 34L900 76L890 76C880 76 860 76 840 76C820 76 800 76 780 76C760 76 740 76 720 76C700 76 680 76 660 76C640 76 620 76 600 76C580 76 560 76 540 76C520 76 500 76 480 76C460 76 440 76 420 76C400 76 380 76 360 76C340 76 320 76 300 76C280 76 260 76 240 76C220 76 200 76 180 76C160 76 140 76 120 76C100 76 80 76 60 76C40 76 20 76 10 76L0 76Z" fill="#0ed3dd"></path><path d="M0 23L10 27.2C20 31.3 40 39.7 60 44.5C80 49.3 100 50.7 120 48.5C140 46.3 160 40.7 180 39.7C200 38.7 220 42.3 240 43.3C260 44.3 280 42.7 300 39.5C320 36.3 340 31.7 360 30.3C380 29 400 31 420 31.3C440 31.7 460 30.3 480 31.5C500 32.7 520 36.3 540 38C560 39.7 580 39.3 600 37.5C620 35.7 640 32.3 660 34.3C680 36.3 700 43.7 720 47.5C740 51.3 760 51.7 780 48.8C800 46 820 40 840 37.2C860 34.3 880 34.7 890 34.8L900 35L900 76L890 76C880 76 860 76 840 76C820 76 800 76 780 76C760 76 740 76 720 76C700 76 680 76 660 76C640 76 620 76 600 76C580 76 560 76 540 76C520 76 500 76 480 76C460 76 440 76 420 76C400 76 380 76 360 76C340 76 320 76 300 76C280 76 260 76 240 76C220 76 200 76 180 76C160 76 140 76 120 76C100 76 80 76 60 76C40 76 20 76 10 76L0 76Z" fill="#00b6fb"></path><path d="M0 58L10 54.3C20 50.7 40 43.3 60 41.7C80 40 100 44 120 44.8C140 45.7 160 43.3 180 41.5C200 39.7 220 38.3 240 42C260 45.7 280 54.3 300 54.3C320 54.3 340 45.7 360 45.7C380 45.7 400 54.3 420 55.2C440 56 460 49 480 46.7C500 44.3 520 46.7 540 45.8C560 45 580 41 600 42.7C620 44.3 640 51.7 660 54.8C680 58 700 57 720 53.8C740 50.7 760 45.3 780 43.3C800 41.3 820 42.7 840 42.5C860 42.3 880 40.7 890 39.8L900 39L900 76L890 76C880 76 860 76 840 76C820 76 800 76 780 76C760 76 740 76 720 76C700 76 680 76 660 76C640 76 620 76 600 76C580 76 560 76 540 76C520 76 500 76 480 76C460 76 440 76 420 76C400 76 380 76 360 76C340 76 320 76 300 76C280 76 260 76 240 76C220 76 200 76 180 76C160 76 140 76 120 76C100 76 80 76 60 76C40 76 20 76 10 76L0 76Z" fill="#338bff"></path><path d="M0 66L10 66.5C20 67 40 68 60 66.8C80 65.7 100 62.3 120 61C140 59.7 160 60.3 180 60.3C200 60.3 220 59.7 240 58C260 56.3 280 53.7 300 55.5C320 57.3 340 63.7 360 63.7C380 63.7 400 57.3 420 53.8C440 50.3 460 49.7 480 49.2C500 48.7 520 48.3 540 50.8C560 53.3 580 58.7 600 62.3C620 66 640 68 660 68.2C680 68.3 700 66.7 720 63C740 59.3 760 53.7 780 54.5C800 55.3 820 62.7 840 65.2C860 67.7 880 65.3 890 64.2L900 63L900 76L890 76C880 76 860 76 840 76C820 76 800 76 780 76C760 76 740 76 720 76C700 76 680 76 660 76C640 76 620 76 600 76C580 76 560 76 540 76C520 76 500 76 480 76C460 76 440 76 420 76C400 76 380 76 360 76C340 76 320 76 300 76C280 76 260 76 240 76C220 76 200 76 180 76C160 76 140 76 120 76C100 76 80 76 60 76C40 76 20 76 10 76L0 76Z" fill="#9d3be1"></path></svg>