<svg id="ezSqaMhKgpe1" xmlns="http://www.w3.org/2000/svg" xmlns:xlink="http://www.w3.org/1999/xlink" viewBox="0 0 400 20" shape-rendering="geometricPrecision" text-rendering="geometricPrecision"><path d="M6.70664,200c0-6.3409.30532-12.61049.90207-18.79487C17.93899,256.13451,82.23049,313.84079,160,313.84079c84.96392,0,153.84079-68.87687,153.84079-153.84079c0-77.76952-57.70628-142.06101-132.63566-152.39129C187.38951,7.01196,193.6591,6.70664,200,6.70664C306.75298,6.70664,393.29336,93.24703,393.29336,200s-86.54039,193.29336-193.29336,193.29336-193.29336-86.54039-193.29336-193.29336Z" transform="matrix(.049258 0 0 0.049258-177.247595-91.596415)" stroke-width="0"/><path d="M6.70664,200c0-6.3409.30532-12.61049.90207-18.79487C17.93899,256.13451,82.23049,313.84079,160,313.84079c84.96392,0,153.84079-68.87687,153.84079-153.84079c0-77.76952-57.70628-142.06101-132.63566-152.39129C187.38951,7.01196,193.6591,6.70664,200,6.70664C306.75298,6.70664,393.29336,93.24703,393.29336,200s-86.54039,193.29336-193.29336,193.29336-193.29336-86.54039-193.29336-193.29336Z" transform="matrix(-.04948 0 0-.04948 209.896 19.896001)" fill="#fff" stroke-width="0"/><path d="M1153.59684,277.32508c-67.74877,0-122.67,54.92123-122.67,122.67c0-67.74877-54.92123-122.67-122.67-122.67c67.74877,0,122.67-54.92123,122.67-122.67c0,67.74877,54.92123,122.67,122.67,122.67Z" transform="matrix(.079523 0 0 0.079523-249.144547-134.301397)" stroke-width="0"/><rect width="210.11714" height="3" rx="0" ry="0" transform="matrix(.856665 0 0 1 0 8.5)" fill="#fff" stroke-width="0"/><rect width="210.11714" height="3" rx="0" ry="0" transform="matrix(.856665 0 0 1 220 8.5)" fill="#fff" stroke-width="0"/></svg>
